# xmcd
#
# Track frame offsets:
#	150
#	18816
#	33956
#	50833
#	66856
#	85628
#	101488
#	117053
#	137978
#	152881
#	167731
#	185158
#	199822
#	214739
#	230809
#	246466
#	263493
#	276225
#
# Disc length: 3884
#
# Revision: 1
# Processed by: cddbd v1.5.1PL0 Copyright (c) Steve Scherf et al.
# Submitted via: VisiTrax 2.9.9.209 - For more info visit www.synapsa.com
# Normalized: r0:DSETVAR1
#
DISCID=060f2a12
DTITLE=Various Artist - The Classic of Country Music, Disc 1
DYEAR=2003
DGENRE=Country
TTITLE0=Any man of mine - Shania Twain
TTITLE1=Gibson Miller - She's getting a rock
TTITLE2=LeAnn Rimes - Love must be telling me something
TTITLE3=Super Boys - Feel again
TTITLE4=Judds, The - One man woman
TTITLE5=Don Williams - Games people play
TTITLE6=Crystal Gayle - Ready for the times to get better
TTITLE7=John Denver - Follow me
TTITLE8=Faith Hill - This kiss
TTITLE9=Don McLean - No getting over me
TTITLE10=Trisha Yearwood - Too bad you're no good
TTITLE11=Joe Doyle - Hillbilly fever
TTITLE12=Josh Leo - Call me up
TTITLE13=Steve Grossman - High Rollin'
TTITLE14=Mike Daly - Small price
TTITLE15=Bryan Grassmeyer - Big heart
TTITLE16=Dave Gibson - Where there's smoke
TTITLE17=Blue Miller - Your daddy
EXTD=
EXTT0=
EXTT1=
EXTT2=
EXTT3=
EXTT4=
EXTT5=
EXTT6=
EXTT7=
EXTT8=
EXTT9=
EXTT10=
EXTT11=
EXTT12=
EXTT13=
EXTT14=
EXTT15=
EXTT16=
EXTT17=
PLAYORDER=
